<?xml version="1.0" encoding="iso-8859-1"?>
<!-- Generator: Adobe Illustrator 13.0.0, SVG Export Plug-In  -->
<!DOCTYPE svg PUBLIC "-//W3C//DTD SVG 1.0//EN" "http://www.w3.org/TR/2001/REC-SVG-20010904/DTD/svg10.dtd" [
	<!ENTITY ns_flows "http://ns.adobe.com/Flows/1.0/">
	<!ENTITY st0 "fill-rule:evenodd;clip-rule:evenodd;fill:#FFFFFF;">
	<!ENTITY st1 "fill-rule:evenodd;clip-rule:evenodd;fill:#002495;">
]>
<svg version="1.0"
	 xmlns="http://www.w3.org/2000/svg" xmlns:xlink="http://www.w3.org/1999/xlink" xmlns:a="http://ns.adobe.com/AdobeSVGViewerExtensions/3.0/"
	 x="0px" y="0px" width="600px" height="400px" viewBox="0 0 600 400" style="enable-background:new 0 0 600 400;"
	 xml:space="preserve">
<defs>
</defs>
<polygon id="White_cross_1_" style="&st0;" points="600,150 600,250.002 349.996,250.002 349.996,400 250.003,400 250.003,250.002 
	0,250.002 0,150 250.003,150 250.003,0 349.996,0 349.996,150 "/>
<rect id="Upper_left_blue_field_1_" style="&st1;" width="250.003" height="150"/>
<rect id="Upper_right_blue_field_1_" x="349.996" style="&st1;" width="250.004" height="150"/>
<rect id="Lower_right_blue_field_1_" x="349.996" y="250.002" style="&st1;" width="250.004" height="149.998"/>
<rect id="Lower_left_blue_field_1_" y="250.002" style="&st1;" width="250.003" height="149.998"/>
<path id="Upper_left_fleur-de-lis_1_" style="&st0;" d="M149.5,93.071c1.607-2.39,1.47-7.622-1.743-9.469
	c-2.458-1.229-5.234-0.748-6.531,0.31c-2.088,1.263-4.099,5.302-4.099,9.392l7.21-0.009l-0.002,8.051l-14.964-0.008
	c0.196,4.141,2.454,7.458,6.656,9.305c-0.541,1.745-3.075,5.302-6.555,5.061c-0.687,3.764-1.34,5.877-4.469,9.297
	c-3.131-3.419-3.784-5.533-4.471-9.297c-3.48,0.241-6.014-3.316-6.555-5.061c4.202-1.847,6.46-5.164,6.656-9.305l-14.965,0.008
	v-8.051l7.208,0.009c0-4.09-2.008-8.129-4.098-9.392c-1.297-1.057-4.072-1.538-6.529-0.31c-3.215,1.847-3.353,7.08-1.746,9.469
	c-15.182-2.819-13.676-17.481-8.504-22.804c4.18-4.3,8.737-4.972,12.251-3.616c7.986,2.863,13.357,12.403,13.618,26.653h4.176
	c0-12.954-2.254-17.084-8.127-33.354c-2.958-7.689-1.181-17.195,4.107-25.948c1.894-3.137,4.26-5.969,6.979-9.002
	c2.717,3.033,5.083,5.865,6.977,9.002c5.288,8.753,7.065,18.259,4.109,25.948c-5.876,16.27-8.13,20.399-8.13,33.354h4.176
	c0.261-14.25,5.634-23.79,13.618-26.653c3.514-1.355,8.074-0.684,12.252,3.616C163.176,75.59,164.682,90.252,149.5,93.071z"/>
<path id="Upper_right_fleur-de-lis_1_" style="&st0;" d="M499.496,93.071c1.607-2.39,1.473-7.622-1.742-9.469
	c-2.459-1.229-5.234-0.748-6.531,0.31c-2.088,1.263-4.1,5.302-4.1,9.392l7.211-0.009v8.051l-14.965-0.008
	c0.193,4.141,2.453,7.458,6.656,9.305c-0.543,1.745-3.078,5.302-6.557,5.061c-0.686,3.764-1.342,5.877-4.469,9.297
	c-3.129-3.419-3.783-5.533-4.469-9.297c-3.482,0.241-6.018-3.316-6.559-5.061c4.203-1.847,6.463-5.164,6.656-9.305l-14.963,0.008
	l-0.002-8.051l7.211,0.009c0-4.09-2.012-8.129-4.102-9.392c-1.297-1.057-4.072-1.538-6.527-0.31
	c-3.215,1.847-3.352,7.08-1.746,9.469c-15.182-2.819-13.676-17.481-8.504-22.804c4.18-4.3,8.736-4.972,12.25-3.616
	c7.986,2.863,13.357,12.403,13.619,26.653h4.176c0-12.954-2.254-17.084-8.127-33.354c-2.959-7.689-1.182-17.195,4.105-25.948
	c1.895-3.137,4.26-5.969,6.98-9.002c2.717,3.033,5.082,5.865,6.979,9.002c5.285,8.753,7.064,18.259,4.107,25.948
	c-5.875,16.27-8.131,20.399-8.131,33.354h4.176c0.264-14.25,5.635-23.79,13.619-26.653c3.514-1.355,8.072-0.684,12.252,3.616
	C513.172,75.59,514.678,90.252,499.496,93.071z"/>
<path id="Lower_right_fleur-de-lis_1_" style="&st0;" d="M499.496,343.071c1.607-2.39,1.473-7.621-1.742-9.469
	c-2.459-1.229-5.234-0.748-6.531,0.309c-2.088,1.263-4.1,5.301-4.1,9.393l7.211-0.009v8.051l-14.965-0.008
	c0.193,4.141,2.453,7.457,6.656,9.306c-0.543,1.743-3.078,5.301-6.557,5.06c-0.686,3.765-1.342,5.878-4.469,9.298
	c-3.129-3.42-3.783-5.533-4.469-9.298c-3.482,0.241-6.018-3.316-6.559-5.06c4.203-1.849,6.463-5.165,6.656-9.306l-14.963,0.008
	l-0.002-8.051l7.211,0.009c0-4.092-2.012-8.13-4.102-9.393c-1.297-1.057-4.072-1.538-6.527-0.309
	c-3.215,1.848-3.352,7.079-1.746,9.469c-15.182-2.821-13.676-17.481-8.504-22.804c4.18-4.3,8.736-4.971,12.25-3.616
	c7.986,2.862,13.357,12.403,13.619,26.652h4.176c0-12.956-2.254-17.085-8.127-33.354c-2.959-7.688-1.182-17.194,4.105-25.949
	c1.895-3.135,4.26-5.967,6.98-9c2.717,3.033,5.082,5.865,6.979,9c5.285,8.755,7.064,18.261,4.107,25.949
	c-5.875,16.269-8.131,20.397-8.131,33.354h4.176c0.264-14.249,5.635-23.79,13.619-26.652c3.514-1.354,8.072-0.684,12.252,3.616
	C513.172,325.59,514.678,340.25,499.496,343.071z"/>
<path id="Lower_left_fleur-de-lis_1_" style="&st0;" d="M149.5,343.071c1.607-2.39,1.47-7.621-1.743-9.469
	c-2.458-1.229-5.234-0.748-6.531,0.309c-2.088,1.263-4.099,5.301-4.099,9.393l7.21-0.009l-0.002,8.051l-14.964-0.008
	c0.196,4.141,2.454,7.457,6.656,9.306c-0.541,1.743-3.075,5.301-6.555,5.06c-0.687,3.765-1.34,5.878-4.469,9.298
	c-3.131-3.42-3.784-5.533-4.471-9.298c-3.48,0.241-6.014-3.316-6.555-5.06c4.202-1.849,6.46-5.165,6.656-9.306l-14.965,0.008v-8.051
	l7.208,0.009c0-4.092-2.008-8.13-4.098-9.393c-1.297-1.057-4.072-1.538-6.529-0.309c-3.215,1.848-3.353,7.079-1.746,9.469
	c-15.182-2.821-13.676-17.481-8.504-22.804c4.18-4.3,8.737-4.971,12.251-3.616c7.986,2.862,13.357,12.403,13.618,26.652h4.176
	c0-12.956-2.254-17.085-8.127-33.354c-2.958-7.688-1.181-17.194,4.107-25.949c1.894-3.135,4.26-5.967,6.979-9
	c2.717,3.033,5.083,5.865,6.977,9c5.288,8.755,7.065,18.261,4.109,25.949c-5.876,16.269-8.13,20.397-8.13,33.354h4.176
	c0.261-14.249,5.634-23.79,13.618-26.652c3.514-1.354,8.074-0.684,12.252,3.616C163.176,325.59,164.682,340.25,149.5,343.071z"/>
</svg>
